<?xml version="1.0" encoding="utf-8"?>
<!-- Generator: Adobe Illustrator 16.0.0, SVG Export Plug-In . SVG Version: 6.00 Build 0)  -->
<!DOCTYPE svg PUBLIC "-//W3C//DTD SVG 1.1//EN" "http://www.w3.org/Graphics/SVG/1.1/DTD/svg11.dtd">
<svg version="1.1" id="Capa_1" xmlns="http://www.w3.org/2000/svg" xmlns:xlink="http://www.w3.org/1999/xlink" x="0px" y="0px"
	 width="1080.001px" height="1034.712px" viewBox="-118.385 -219.3 1080.001 1034.712"
	 enable-background="new -118.385 -219.3 1080.001 1034.712" xml:space="preserve">
<path fill="#815C20" d="M942.929-73.649c-15.403-18.683-38.237-29.39-62.642-29.39H253.646c-12.835,0-23.251,10.416-23.251,23.251
	c0,12.836,10.416,23.252,23.251,23.252h626.631c10.613,0,20.124,4.43,26.764,12.476c6.744,8.184,9.44,18.974,7.406,29.471
	l-92.928,464.657c-3.604,16.604-17.683,28.195-34.237,28.195H270.422L57.028-164.205c-11.534-32.947-42.761-55.084-78.524-55.084
	c-0.009,0-0.023,0-0.036,0c-30.332,1.046-61.093,1.035-68.628,0.523c-7.498-1.629-15.602,0.464-21.414,6.277
	c-9.08,9.082-9.08,23.798,0,32.878c7.197,7.198,9.628,9.628,90.847,6.814c15.23,0,28.844,9.627,33.739,23.6l218.536,657.944
	c0.02,0.061,0.036,0.121,0.056,0.181l45.435,135.127c5.682,16.222,16.028,29.813,29.151,39.441
	c-11.043,13.895-17.665,31.453-17.665,50.535c0,44.864,36.505,81.38,81.382,81.38s81.38-36.516,81.38-81.38
	c0-12.476-2.83-24.303-7.871-34.882h259.893c-5.042,10.579-7.874,22.406-7.874,34.882c0,44.864,36.52,81.38,81.384,81.38
	s81.38-36.516,81.38-81.38s-36.516-81.383-81.38-81.383c-0.181,0-0.358,0.013-0.538,0.014H370.445
	c-0.18-0.001-0.358-0.014-0.539-0.014s-0.358,0.013-0.539,0.014h-15.737c-14.312,0-27.763-9.861-32.611-23.695l-35.033-104.203
	h501.291c38.624,0,71.384-26.658,79.768-65.201L960.087-5.605C964.785-29.924,958.542-54.721,942.929-73.649z M369.906,768.911
	c-19.229,0-34.878-15.651-34.878-34.879c0-19.23,15.649-34.878,34.878-34.878s34.878,15.647,34.878,34.878
	S389.135,768.911,369.906,768.911z M811.696,734.032c0,19.23-15.651,34.879-34.878,34.879c-19.23,0-34.879-15.651-34.879-34.879
	c0-19.23,15.648-34.878,34.879-34.878C796.044,699.154,811.696,714.802,811.696,734.032z"/>
</svg>
