<?xml version="1.0" encoding="utf-8"?>
<!-- Generator: Adobe Illustrator 23.0.2, SVG Export Plug-In . SVG Version: 6.00 Build 0)  -->
<svg version="1.1" id="Capa_1" xmlns="http://www.w3.org/2000/svg" xmlns:xlink="http://www.w3.org/1999/xlink" x="0px" y="0px"
	 viewBox="0 0 1080 1034.7" style="enable-background:new 0 0 1080 1034.7;" xml:space="preserve">
<style type="text/css">
	.st0{fill:#FFFFFF;}
</style>
<path class="st0" d="M1061.3,145.7c-15.4-18.7-38.2-29.4-62.6-29.4H372c-12.8,0-23.3,10.4-23.3,23.3c0,12.8,10.4,23.3,23.3,23.3
	h626.6c10.6,0,20.1,4.4,26.8,12.5c6.7,8.2,9.4,19,7.4,29.5l-92.9,464.7c-3.6,16.6-17.7,28.2-34.2,28.2H388.8L175.4,55.1
	C163.9,22.1,132.7,0,96.9,0c0,0,0,0,0,0c-30.3,1-61.1,1-68.6,0.5C20.7-1.1,12.6,1,6.8,6.8c-9.1,9.1-9.1,23.8,0,32.9
	c7.2,7.2,9.6,9.6,90.8,6.8c15.2,0,28.8,9.6,33.7,23.6L349.9,728c0,0.1,0,0.1,0.1,0.2l45.4,135.1c5.7,16.2,16,29.8,29.2,39.4
	c-11,13.9-17.7,31.5-17.7,50.5c0,44.9,36.5,81.4,81.4,81.4s81.4-36.5,81.4-81.4c0-12.5-2.8-24.3-7.9-34.9h259.9
	c-5,10.6-7.9,22.4-7.9,34.9c0,44.9,36.5,81.4,81.4,81.4s81.4-36.5,81.4-81.4s-36.5-81.4-81.4-81.4c-0.2,0-0.4,0-0.5,0H488.8
	c-0.2,0-0.4,0-0.5,0s-0.4,0-0.5,0H472c-14.3,0-27.8-9.9-32.6-23.7l-35-104.2h501.3c38.6,0,71.4-26.7,79.8-65.2l93-465.2
	C1083.2,189.4,1076.9,164.6,1061.3,145.7z M488.3,988.2c-19.2,0-34.9-15.7-34.9-34.9c0-19.2,15.6-34.9,34.9-34.9
	s34.9,15.6,34.9,34.9C523.2,972.6,507.5,988.2,488.3,988.2z M930.1,953.3c0,19.2-15.7,34.9-34.9,34.9c-19.2,0-34.9-15.7-34.9-34.9
	c0-19.2,15.6-34.9,34.9-34.9C914.4,918.5,930.1,934.1,930.1,953.3z"/>
</svg>
