<?xml version="1.0" encoding="utf-8"?>
<!-- Generator: Adobe Illustrator 16.0.0, SVG Export Plug-In . SVG Version: 6.00 Build 0)  -->
<!DOCTYPE svg PUBLIC "-//W3C//DTD SVG 1.1//EN" "http://www.w3.org/Graphics/SVG/1.1/DTD/svg11.dtd">
<svg version="1.1" id="Capa_1" xmlns="http://www.w3.org/2000/svg" xmlns:xlink="http://www.w3.org/1999/xlink" x="0px" y="0px"
	 width="1080px" height="1298.109px" viewBox="-120.466 -353.039 1080 1298.109"
	 enable-background="new -120.466 -353.039 1080 1298.109" xml:space="preserve">
<g>
	<g>
		<path fill="#815C20" d="M824.627-205.792H611.716v-35.958c0.002-61.366-49.923-111.289-111.284-111.289H338.639
			c-61.364,0-111.287,49.922-111.287,111.289v35.961H14.441c-74.387,0-134.907,60.52-134.907,134.907V6.359
			c0,14.002,11.355,25.354,25.354,25.354h71.998l64.291,763.416c3.454,41.002,22.036,78.916,52.329,106.763
			c30.288,27.843,69.629,43.179,110.774,43.179h430.512c41.147,0,80.485-15.336,110.776-43.179
			c30.291-27.847,48.87-65.764,52.324-106.763l64.293-763.416h71.995c14.002,0,25.354-11.352,25.354-25.354v-77.242
			C959.534-145.273,899.015-205.792,824.627-205.792L824.627-205.792z M278.06-241.75c0-33.403,27.176-60.581,60.579-60.581h161.793
			c33.403,0,60.579,27.178,60.579,60.581v35.961H278.06V-241.75z M908.826-18.997H531.854c-14.001,0-25.354,11.355-25.354,25.354
			c0,14.001,11.353,25.354,25.354,25.354h279.442l-63.934,759.164c-4.885,58.031-54.332,103.487-112.571,103.487H204.279
			c-58.237,0-107.684-45.458-112.571-103.487L27.774,31.711h280.978c14.002,0,25.354-11.353,25.354-25.354
			c0-13.999-11.352-25.354-25.354-25.354h-378.51v-51.888c0-46.429,37.771-84.2,84.199-84.2H824.63
			c46.431,0,84.199,37.771,84.199,84.2v51.888H908.826z"/>
		<path fill="#815C20" d="M274.915,228.555c-9.904-9.898-25.953-9.898-35.859,0c-9.898,9.899-9.898,25.953,0,35.857l144.62,144.62
			l-144.62,144.62c-9.898,9.901-9.898,25.955,0,35.859c4.952,4.949,11.441,7.426,17.929,7.426c6.487,0,12.977-2.477,17.928-7.426
			l144.623-144.622l144.62,144.619c4.951,4.95,11.438,7.426,17.926,7.426c6.489,0,12.977-2.476,17.928-7.426
			c9.901-9.901,9.901-25.955,0-35.858L455.39,409.03l144.619-144.62c9.901-9.901,9.901-25.955,0-35.856
			c-9.903-9.899-25.95-9.899-35.856,0L419.535,373.176L274.915,228.555z"/>
		<path fill="#815C20" d="M398.668,16.06c5.318,12.751,20.303,18.995,33.086,13.717c12.778-5.276,18.985-20.36,13.717-33.113
			c-5.274-12.771-20.345-18.998-33.111-13.717C399.557-11.755,393.439,3.292,398.668,16.06z"/>
	</g>
</g>
</svg>
