<?xml version="1.0" encoding="utf-8"?>
<!-- Generator: Adobe Illustrator 16.0.0, SVG Export Plug-In . SVG Version: 6.00 Build 0)  -->
<!DOCTYPE svg PUBLIC "-//W3C//DTD SVG 1.1//EN" "http://www.w3.org/Graphics/SVG/1.1/DTD/svg11.dtd">
<svg version="1.1" id="Capa_1" xmlns="http://www.w3.org/2000/svg" xmlns:xlink="http://www.w3.org/1999/xlink" x="0px" y="0px"
	 width="1080px" height="821.9px" viewBox="-119.055 -113.309 1080 821.9" enable-background="new -119.055 -113.309 1080 821.9"
	 xml:space="preserve">
<g>
	<g>
		<g>
			<path fill="#815C20" d="M829.1-113.309H13.011c-72.849,0-132.066,59.217-132.066,132.068v557.764
				c0,72.85,59.217,132.068,132.066,132.068h815.865c72.85,0,132.068-59.219,132.068-132.068V18.982
				C961.168-53.867,901.948-113.309,829.1-113.309z M900.833,576.522c0,39.555-32.181,71.733-71.733,71.733H13.011
				c-39.553,0-71.731-32.179-71.731-71.733V18.982c0-39.554,32.178-71.733,71.731-71.733h815.865
				c39.553,0,71.731,32.179,71.731,71.733v557.541H900.833z"/>
			<path fill="#815C20" d="M562.062,290.713L826.197,53.841c12.288-11.172,13.406-30.167,2.233-42.681
				c-11.173-12.291-30.167-13.407-42.681-2.234L421.502,335.853l-71.062-63.464c-0.223-0.225-0.446-0.448-0.446-0.671
				c-1.564-1.564-3.129-2.904-4.917-4.245L55.916,8.702C43.402-2.471,24.409-1.355,13.235,11.159
				C2.062,23.673,3.18,42.668,15.694,53.841l267.261,238.883L16.81,541.886c-12.065,11.396-12.737,30.391-1.339,42.682
				c6.033,6.256,14.079,9.608,22.122,9.608c7.374,0,14.748-2.681,20.56-8.044l270.167-252.738l73.296,65.475
				c5.81,5.141,12.96,7.598,20.111,7.598c7.15,0,14.526-2.681,20.112-7.82l75.307-67.486l268.604,255.195
				c5.809,5.587,13.406,8.268,20.782,8.268c8.044,0,15.864-3.127,21.898-9.385c11.396-12.067,10.95-31.284-1.118-42.682
				L562.062,290.713z"/>
		</g>
	</g>
</g>
</svg>
