<?xml version="1.0" encoding="utf-8"?>
<!-- Generator: Adobe Illustrator 23.0.2, SVG Export Plug-In . SVG Version: 6.00 Build 0)  -->
<svg version="1.1" id="Capa_1" xmlns="http://www.w3.org/2000/svg" xmlns:xlink="http://www.w3.org/1999/xlink" x="0px" y="0px"
	 viewBox="0 0 1080 739.9" style="enable-background:new 0 0 1080 739.9;" xml:space="preserve">
<style type="text/css">
	.st0{fill:#FFFFFF;}
</style>
<g>
	<g>
		<path class="st0" d="M985.1,0H94.9C42.6,0,0,42.6,0,94.9V645c0,52.3,42.6,94.9,94.9,94.9h890.2c52.3,0,94.9-42.6,94.9-94.9V94.9
			C1080,42.6,1037.4,0,985.1,0z M972.7,63.3L960,73.8L577.7,392.2c-21.8,18.2-53.5,18.2-75.3,0L120,73.8l-12.7-10.5H972.7z
			 M63.3,109l311.5,259.4L63.3,575.7V109z M985.1,676.7H94.9c-15.3,0-28.1-10.9-31-25.3l361.6-240.7l36.3,30.2
			c22.6,18.9,50.4,28.3,78.2,28.3c27.8,0,55.5-9.4,78.2-28.3l36.3-30.2l361.6,240.7C1013.2,665.8,1000.4,676.7,985.1,676.7z
			 M1016.7,575.7L705.2,368.4L1016.7,109V575.7z"/>
	</g>
</g>
</svg>
