<?xml version="1.0" encoding="utf-8"?>
<!-- Generator: Adobe Illustrator 23.0.2, SVG Export Plug-In . SVG Version: 6.00 Build 0)  -->
<svg version="1.1" id="Capa_1" xmlns="http://www.w3.org/2000/svg" xmlns:xlink="http://www.w3.org/1999/xlink" x="0px" y="0px"
	 viewBox="0 0 1080 1082.9" style="enable-background:new 0 0 1080 1082.9;" xml:space="preserve">
<style type="text/css">
	.st0{fill:#FFFFFF;}
</style>
<g>
	<g>
		<g>
			<path class="st0" d="M817.7,123.9H509.1c-9,0-16.2,7.3-16.2,16.2c0,9,7.3,16.2,16.2,16.2h308.6c9,0,16.2-7.3,16.2-16.2
				C833.9,131.1,826.7,123.9,817.7,123.9z"/>
			<path class="st0" d="M817.7,199.5H509.1c-9,0-16.2,7.3-16.2,16.2c0,9,7.3,16.2,16.2,16.2h308.6c9,0,16.2-7.3,16.2-16.2
				C833.9,206.8,826.7,199.5,817.7,199.5z"/>
			<path class="st0" d="M1009.2,292.2h-2.2v-38.8c0-25.8-21-46.9-46.9-46.9h-15.4V178c0-9-7.3-16.2-16.2-16.2
				c-9,0-16.2,7.3-16.2,16.2v114.2h-498V45.3c0-7.1,5.8-12.9,12.9-12.9h472.2c7.1,0,12.9,5.8,12.9,12.9v56.9c0,9,7.3,16.2,16.2,16.2
				c9,0,16.2-7.3,16.2-16.2V45.3c0-25-20.3-45.3-45.3-45.3H427.3c-25,0-45.3,20.3-45.3,45.3v161.2h-15.4
				c-18.5,0-34.5,10.8-42.2,26.4c-14.7-13.1-34-21.1-55.1-21.1H159.4c-44.8,0-81.4,35.8-82.8,80.4h-5.9c-39,0-70.8,31.7-70.8,70.8
				v568.9c0,39,31.7,70.8,70.8,70.8h5.9c1.3,44.5,37.9,80.3,82.8,80.3h109.9c44.8,0,81.5-35.8,82.8-80.3h657.2
				c39,0,70.8-31.7,70.8-70.8V362.9C1080,323.9,1048.3,292.2,1009.2,292.2L1009.2,292.2z M944.8,238.9h15.4c8,0,14.4,6.5,14.4,14.4
				v38.8h-29.9V238.9L944.8,238.9z M366.6,238.9H382v53.3h-29.9v-38.8C352.2,245.4,358.6,238.9,366.6,238.9z M32.4,931.8V362.9
				c0-21.1,17.2-38.3,38.3-38.3h5.9v31.2c0,75.7,10.4,124.1,15.7,169.4V769C71.9,870.3,77.6,942.2,76.6,970.1h-5.9
				C49.6,970.1,32.4,952.9,32.4,931.8z M319.7,1000.1c0,27.8-22.6,50.4-50.4,50.4H159.4c-27.8,0-50.4-22.6-50.4-50.4
				c1.5-51.3-5.9-122.1,15.4-226.2c0.2-1.1,0.3-2.2,0.3-3.2V524.1c0-0.7,0-1.5-0.1-2.2C119.3,477,109,429.1,109,355.8v-61.2
				c0-27.8,22.6-50.4,50.4-50.4h109.9c27.8,0,50.4,22.6,50.4,50.4v13.7v47.4c0,73-10.1,119.5-15.6,166.1c-0.1,0.7-0.1,1.5-0.1,2.2
				v246.5c0,1.1,0.1,2.2,0.3,3.2C325.6,877.9,318.2,948.4,319.7,1000.1z M1047.6,931.8c0,21.1-17.2,38.3-38.3,38.3H352.2
				c-0.9-26.5,4.8-99.7-15.7-201.1V525.2c5.4-45.6,15.7-93.4,15.7-169.4v-31.2h657.1c21.1,0,38.3,17.2,38.3,38.3L1047.6,931.8
				L1047.6,931.8z"/>
			<path class="st0" d="M881.3,397H445.5c-20.8,0-37.7,16.9-37.7,37.7v101.7c0,20.8,16.9,37.7,37.7,37.7h75.8
				c9,0,16.2-7.3,16.2-16.2c0-9-7.3-16.2-16.2-16.2h-75.8c-2.9,0-5.3-2.4-5.3-5.3V434.7c0-2.9,2.4-5.3,5.3-5.3h435.8
				c2.9,0,5.3,2.4,5.3,5.3v101.7c0,2.9-2.4,5.3-5.3,5.3H597.1c-9,0-16.2,7.3-16.2,16.2c0,9,7.3,16.2,16.2,16.2h284.2
				c20.8,0,37.7-16.9,37.7-37.7V434.7C919,413.9,902.1,397,881.3,397L881.3,397z"/>
			<path class="st0" d="M482,626.9h-42.7c-17.4,0-31.5,14.1-31.5,31.5v41.1c0,17.4,14.1,31.5,31.5,31.5H482
				c17.4,0,31.5-14.1,31.5-31.5v-41.1C513.5,641,499.4,626.9,482,626.9z M481.1,698.5h-40.9v-39.3h40.9V698.5z"/>
			<path class="st0" d="M617.2,626.9h-42.7c-17.4,0-31.5,14.1-31.5,31.5v41.1c0,17.4,14.1,31.5,31.5,31.5h42.7
				c17.4,0,31.5-14.1,31.5-31.5v-41.1C648.7,641,634.5,626.9,617.2,626.9z M616.3,698.5h-40.9v-39.3h40.9V698.5z"/>
			<path class="st0" d="M752.3,626.9h-42.7c-17.4,0-31.5,14.1-31.5,31.5v41.1c0,17.4,14.1,31.5,31.5,31.5h42.7
				c17.4,0,31.5-14.1,31.5-31.5v-41.1C783.9,641,769.7,626.9,752.3,626.9z M751.4,698.5h-40.9v-39.3h40.9V698.5z"/>
			<path class="st0" d="M887.5,626.9h-42.7c-17.4,0-31.5,14.1-31.5,31.5v41.1c0,17.4,14.1,31.5,31.5,31.5h42.7
				c17.4,0,31.5-14.1,31.5-31.5v-41.1C919,641,904.9,626.9,887.5,626.9z M886.6,698.5h-40.9v-39.3h40.9V698.5z"/>
			<path class="st0" d="M482,781h-42.7c-17.4,0-31.5,14.1-31.5,31.5v41.1c0,17.4,14.1,31.5,31.5,31.5H482
				c17.4,0,31.5-14.1,31.5-31.5v-41.1C513.5,795.2,499.4,781,482,781z M481.1,852.7h-40.9v-39.3h40.9V852.7z"/>
			<path class="st0" d="M617.2,781h-42.7c-17.4,0-31.5,14.1-31.5,31.5v41.1c0,17.4,14.1,31.5,31.5,31.5h42.7
				c17.4,0,31.5-14.1,31.5-31.5v-41.1C648.7,795.2,634.5,781,617.2,781z M616.3,852.7h-40.9v-39.3h40.9V852.7z"/>
			<path class="st0" d="M752.3,781h-42.7c-17.4,0-31.5,14.1-31.5,31.5v41.1c0,17.4,14.1,31.5,31.5,31.5h42.7
				c17.4,0,31.5-14.1,31.5-31.5v-41.1C783.9,795.2,769.7,781,752.3,781z M751.4,852.7h-40.9v-39.3h40.9V852.7z"/>
			<path class="st0" d="M887.5,781h-42.7c-17.4,0-31.5,14.1-31.5,31.5v41.1c0,17.4,14.1,31.5,31.5,31.5h42.7
				c17.4,0,31.5-14.1,31.5-31.5v-41.1C919,795.2,904.9,781,887.5,781z M886.6,852.7h-40.9v-39.3h40.9V852.7z"/>
		</g>
	</g>
</g>
</svg>
