<?xml version="1.0" encoding="utf-8"?>
<!-- Generator: Adobe Illustrator 23.0.2, SVG Export Plug-In . SVG Version: 6.00 Build 0)  -->
<svg version="1.1" id="Capa_1" xmlns="http://www.w3.org/2000/svg" xmlns:xlink="http://www.w3.org/1999/xlink" x="0px" y="0px"
	 viewBox="0 0 1080 1536" style="enable-background:new 0 0 1080 1536;" xml:space="preserve">
<style type="text/css">
	.st0{fill:#FFFFFF;}
</style>
<g>
	<path class="st0" d="M922.1,1243.1c-42.5-20.3-97.5-36.7-160.9-48.3c18.5-19.2,37.4-39.6,56.4-61.4
		c75.7-86.9,136.2-175.6,179.6-263.8c54.9-111.5,82.8-222.4,82.8-329.7C1080,242.2,837.8,0,540,0C242.2,0,0,242.2,0,540
		c0,107.3,27.8,218.2,82.8,329.7c43.4,88.2,103.9,176.9,179.6,263.8c19,21.8,37.9,42.2,56.4,61.4c-63.4,11.6-118.3,28-160.9,48.3
		C77,1281.8,60,1325.8,60,1356c0,38.2,26.4,92.6,152.3,134.5c88,29.3,204.3,45.5,327.7,45.5c123.3,0,239.7-16.1,327.7-45.5
		c125.9-42,152.3-96.3,152.3-134.5C1020,1325.8,1003,1281.8,922.1,1243.1L922.1,1243.1z M60,540C60,275.3,275.3,60,540,60
		s480,215.3,480,480c0,222.7-134.2,423.7-246.7,553c-96.7,111.1-194.5,190-233.3,219.6c-38.7-29.6-136.6-108.5-233.3-219.6
		C194.2,963.7,60,762.7,60,540L60,540z M848.7,1433.6c-82,27.3-191.7,42.4-308.7,42.4c-117.1,0-226.7-15.1-308.7-42.4
		c-82.1-27.4-111.3-58.9-111.3-77.6c0-31.2,78.2-84.8,251.5-108.8c25.7,24.4,49.6,45.6,70.5,63.4c-31.8,11-52,27.3-52,45.4
		c0,33.2,67.2,60,150,60c82.8,0,150-26.8,150-60c0-18.2-20.1-34.4-52-45.4c20.9-17.8,44.8-39,70.5-63.4
		c173.3,24,251.5,77.7,251.5,108.8C960,1374.7,930.9,1406.2,848.7,1433.6L848.7,1433.6z"/>
	<path class="st0" d="M836.7,540c0-163.6-133.1-296.7-296.7-296.7c-163.6,0-296.7,133.1-296.7,296.7
		c0,163.6,133.1,296.7,296.7,296.7C703.6,836.7,836.7,703.6,836.7,540z M285.7,540c0-140.2,114.1-254.3,254.3-254.3
		c140.2,0,254.3,114.1,254.3,254.3c0,140.2-114.1,254.3-254.3,254.3C399.8,794.3,285.7,680.2,285.7,540z"/>
</g>
</svg>
