<?xml version="1.0" encoding="utf-8"?>
<!-- Generator: Adobe Illustrator 23.0.2, SVG Export Plug-In . SVG Version: 6.00 Build 0)  -->
<svg version="1.1" id="Capa_1" xmlns="http://www.w3.org/2000/svg" xmlns:xlink="http://www.w3.org/1999/xlink" x="0px" y="0px"
	 viewBox="0 0 1080 824.2" style="enable-background:new 0 0 1080 824.2;" xml:space="preserve">
<style type="text/css">
	.st0{fill:#FFFFFF;}
</style>
<path class="st0" d="M1080,530.9c0-96.6-67.6-180.9-168.3-226.5c5.9,21.1,9.4,42.8,10,65.1c10,6,19.8,12.4,28.8,19.4
	c50.8,39.2,78.8,89.6,78.8,141.9s-27.9,102.8-78.8,141.9c-55.7,43-130.6,66.6-210.8,66.6c-54.1,0-105.8-10.8-150.8-30.9
	c-27.9,5.5-57,9-86.9,10.2c61.4,46.1,145.2,74.6,237.7,74.6c59.4,0,115.2-11.7,163.7-32.3l123.9,63.2l-25-126.4
	C1050.8,652.4,1080,594.3,1080,530.9z"/>
<path class="st0" d="M886.5,334.2c-0.7-22.3-4-44.1-10-65.1C833.3,115.3,655.7,0,443.3,0C198.5,0,0,153.1,0,341.9
	c0,82.6,38,158.3,101.2,217.5L68.6,724L230,641.7c63.3,26.9,136,42.2,213.3,42.2c7.9,0,15.7-0.2,23.5-0.5
	c29.8-1.2,58.9-4.7,86.9-10.3c191.4-37.8,332.9-171.8,332.9-331.2C886.6,339.4,886.5,336.8,886.5,334.2z M718,526.8
	c-67.2,51.8-155.9,82.1-251.8,86.2c-7.6,0.4-15.3,0.6-23,0.6c-14.8,0-29.5-0.7-44-1.9c-87.8-7.3-168.4-36.8-230.7-84.8
	C102.5,475.9,66,410.2,66,342c0-68.2,36.4-133.9,102.6-184.9c72.5-56,170.1-86.8,274.7-86.8c104.6,0,202.2,30.8,274.7,86.8
	c32.8,25.3,58.3,54.2,75.7,85.3c11,19.7,18.7,40.2,23,61.3c2.6,12.6,3.9,25.5,3.9,38.4C820.5,410.1,784.2,475.8,718,526.8z"/>
<path class="st0" d="M600.5,294.5c26.8,0,48.5,21.7,48.5,48.5c0,26.8-21.7,48.5-48.5,48.5c-26.8,0-48.5-21.7-48.5-48.5
	C552.1,316.2,573.8,294.5,600.5,294.5z"/>
<path class="st0" d="M443.3,294.5c26.8,0,48.5,21.7,48.5,48.5c0,26.8-21.7,48.5-48.5,48.5c-26.8,0-48.5-21.7-48.5-48.5
	C394.8,316.2,416.5,294.5,443.3,294.5z"/>
<path class="st0" d="M286,294.4c26.8,0,48.5,21.7,48.5,48.5s-21.7,48.5-48.5,48.5c-26.8,0-48.5-21.7-48.5-48.5
	S259.3,294.4,286,294.4z"/>
</svg>
