<?xml version="1.0" encoding="utf-8"?>
<!-- Generator: Adobe Illustrator 16.0.0, SVG Export Plug-In . SVG Version: 6.00 Build 0)  -->
<!DOCTYPE svg PUBLIC "-//W3C//DTD SVG 1.1//EN" "http://www.w3.org/Graphics/SVG/1.1/DTD/svg11.dtd">
<svg version="1.1" id="Capa_1" xmlns="http://www.w3.org/2000/svg" xmlns:xlink="http://www.w3.org/1999/xlink" x="0px" y="0px"
	 width="1080px" height="995.625px" viewBox="-118.466 -199.985 1080 995.625"
	 enable-background="new -118.466 -199.985 1080 995.625" xml:space="preserve">
<g id="XMLID_2_">
	<g id="XMLID_2177_">
		<path id="XMLID_2733_" fill="#815C20" d="M940.441,27.828H407.177c1.803-10.636,2.756-21.555,2.756-32.695
			c0-107.588-87.529-195.117-195.117-195.117S19.698-112.456,19.698-4.867c0,100.461,76.318,183.423,174.023,193.974v272.792
			H-24.427c-11.651,0-21.094,9.444-21.094,21.094c0,11.65,9.443,21.094,21.094,21.094h218.149v270.461
			c0,11.65,9.443,21.094,21.094,21.094h286.875c11.646,0,21.094-9.443,21.094-21.094c0-11.648-9.447-21.094-21.094-21.094H235.909
			V189.106c71.912-7.766,132.233-54.759,159.072-119.091h68.74v192.655c0,8.539,5.146,16.237,13.039,19.496
			c7.898,3.261,16.975,1.444,22.997-4.608l77.87-78.165l77.87,78.167c4.037,4.052,9.444,6.207,14.946,6.207
			c2.711,0,5.444-0.523,8.049-1.599c7.891-3.259,13.041-10.957,13.041-19.495V70.015h227.813v683.438H691.534
			c-11.648,0-21.094,9.445-21.094,21.094c0,11.65,9.445,21.094,21.094,21.094h248.906c11.646,0,21.094-9.443,21.094-21.094V48.922
			C961.534,37.273,952.087,27.828,940.441,27.828z M214.816,148.062c-84.328,0-152.93-68.602-152.93-152.93
			c0-84.326,68.602-152.93,152.93-152.93c84.326,0,152.93,68.604,152.93,152.93C367.745,79.46,299.141,148.062,214.816,148.062z
			 M649.347,211.609l-56.776-56.99c-3.957-3.974-9.333-6.207-14.942-6.207s-10.985,2.235-14.942,6.207l-56.776,56.99V70.015h143.438
			V211.609z"/>
		<path id="XMLID_2735_" fill="#815C20" d="M819.001,617.992c0-11.649-9.447-21.094-21.094-21.094H641.272
			c-11.648,0-21.094,9.444-21.094,21.094c0,11.65,9.445,21.094,21.094,21.094h156.636
			C809.554,639.086,819.001,629.642,819.001,617.992L819.001,617.992z"/>
		<path id="XMLID_2739_" fill="#815C20" d="M797.907,537.836c11.646,0,21.094-9.443,21.094-21.094v-92.813
			c0-11.649-9.447-21.094-21.094-21.094H578.532c-11.648,0-21.094,9.444-21.094,21.094v92.813c0,11.65,9.445,21.094,21.094,21.094
			H797.907z M599.626,445.023h177.188v50.625H599.626V445.023z"/>
		<path id="XMLID_2740_" fill="#815C20" d="M-97.372,369.086h36.473c11.649,0,21.094-9.443,21.094-21.094
			c0-11.651-9.445-21.094-21.094-21.094h-36.473c-11.651,0-21.094,9.442-21.094,21.094
			C-118.466,359.642-109.023,369.086-97.372,369.086z"/>
		<path id="XMLID_2741_" fill="#815C20" d="M107.238,369.086c11.649,0,21.094-9.443,21.094-21.094
			c0-11.651-9.445-21.094-21.094-21.094H44.416c-11.651,0-21.094,9.442-21.094,21.094c0,11.65,9.443,21.094,21.094,21.094H107.238z"
			/>
		<path id="XMLID_2742_" fill="#815C20" d="M107.238,596.898H-97.372c-11.651,0-21.094,9.444-21.094,21.094
			c0,11.65,9.443,21.094,21.094,21.094h204.609c11.649,0,21.094-9.443,21.094-21.094
			C128.331,606.343,118.886,596.898,107.238,596.898z"/>
		<path id="XMLID_2743_" fill="#815C20" d="M596.613,753.453c-5.547,0-10.99,2.258-14.914,6.182
			c-3.924,3.922-6.18,9.365-6.18,14.912c0,5.55,2.254,10.992,6.18,14.914c3.927,3.924,9.367,6.18,14.914,6.18
			s10.99-2.256,14.91-6.18c3.924-3.922,6.184-9.364,6.184-14.914c0-5.547-2.258-10.99-6.184-14.912
			C607.603,755.711,602.159,753.453,596.613,753.453z"/>
		<path id="XMLID_2744_" fill="#815C20" d="M255.93-50.633L212.309-7.014l-14.702-14.704c-8.237-8.237-21.594-8.237-29.832,0
			c-8.238,8.236-8.238,21.593,0,29.832l29.62,29.62c4.118,4.12,9.517,6.178,14.914,6.178c5.399,0,10.798-2.058,14.916-6.178
			l58.535-58.535c8.237-8.238,8.237-21.594,0-29.832C277.524-58.873,264.166-58.873,255.93-50.633z"/>
	</g>
</g>
</svg>
