<?xml version="1.0" encoding="utf-8"?>
<!-- Generator: Adobe Illustrator 23.0.2, SVG Export Plug-In . SVG Version: 6.00 Build 0)  -->
<svg version="1.1" id="Capa_1" xmlns="http://www.w3.org/2000/svg" xmlns:xlink="http://www.w3.org/1999/xlink" x="0px" y="0px"
	 viewBox="0 0 1090 1090" style="enable-background:new 0 0 1090 1090;" xml:space="preserve">
<style type="text/css">
	.st0{fill:#FFFFFF;}
</style>
<path class="st0" d="M1089.2,893.3c-3.6-27.5-19.5-51.2-43.6-65.1L779.2,674.8c-13.4-7.7-28.6-11.8-44.1-11.8
	c-23.7,0-45.9,9.2-62.6,25.9L620,741.4c-6.4,6.4-14.8,9.9-23.8,9.9c-7.7,0-14.9-2.6-20.9-7.4c-41.2-33.2-81.8-69.7-120.7-108.5
	c-38.8-38.8-75.4-79.4-108.5-120.7c-10.7-13.3-9.6-32.6,2.5-44.7l52.5-52.5c28.2-28.2,34-72.1,14.1-106.7L261.8,44.3
	c-13.8-24-37.6-39.9-65.1-43.6c-3.9-0.5-7.9-0.8-11.8-0.8c-23.5,0-45.6,9.2-62.3,25.9L43.5,105c-56.7,56.7-58,159.6-3.6,289.7
	c51.8,123.8,148.3,260,271.8,383.5c123.5,123.5,259.7,220,383.5,271.8c63.4,26.5,120.3,39.9,169.2,39.9c25.2,0,48.1-3.6,68.2-10.8
	c20.4-7.3,38-18.3,52.4-32.7l79.1-79.1C1083.7,947.8,1092.8,920.8,1089.2,893.3z M316.8,438.2c-28.4,28.4-30.9,73.5-5.8,104.7
	c34.2,42.5,71.8,84.3,111.8,124.3c40,40,81.8,77.6,124.3,111.8c13.9,11.2,31.3,17.3,49.1,17.3c21,0,40.7-8.2,55.6-23.1l9.8-9.8
	l345.6,197.2l-54,54c-20,20-50,30.2-89,30.2c-42.4,0-94.8-12.5-151.6-36.3C594.1,959,463,865.9,343.5,746.4
	C224.1,627,131,495.9,81.4,377.4C58.2,322,46.1,272.5,45.2,230.5c-0.8-41.3,9.3-72.8,30.1-93.6l54.1-54.1l198.3,344.5L316.8,438.2z
	 M163.1,51c6.7-4,14.2-6.1,21.9-6.1c1.9,0,3.9,0.1,5.8,0.4c13.5,1.8,25.2,9.6,32,21.4l153.4,266.4c9.8,17,6.9,38.6-6.9,52.4
	l-8.6,8.6L163.1,51z M704.3,720.7c8.2-8.2,19.1-12.7,30.8-12.7c7.6,0,15.1,2,21.6,5.8l266.4,153.4c11.8,6.8,19.6,18.5,21.4,32
	c1.3,9.8-0.7,19.5-5.7,27.8L694.6,730.5L704.3,720.7z"/>
</svg>
