<?xml version="1.0" encoding="utf-8"?>
<!-- Generator: Adobe Illustrator 16.0.0, SVG Export Plug-In . SVG Version: 6.00 Build 0)  -->
<!DOCTYPE svg PUBLIC "-//W3C//DTD SVG 1.1//EN" "http://www.w3.org/Graphics/SVG/1.1/DTD/svg11.dtd">
<svg version="1.1" id="Capa_1" xmlns="http://www.w3.org/2000/svg" xmlns:xlink="http://www.w3.org/1999/xlink" x="0px" y="0px"
	 width="1080px" height="1080.004px" viewBox="24.945 -380.362 1080 1080.004"
	 enable-background="new 24.945 -380.362 1080 1080.004" xml:space="preserve">
<path fill="#815C20" d="M1019.683,330.737c-65.803,0.127-131.202-10.274-193.719-30.812c-29.231-10.207-61.713-3.329-84.296,17.851
	l-122.666,92.541c-131.733-66.142-238.621-173.009-304.785-304.733l90.093-119.71c22.746-22.762,30.882-56.315,21.089-86.968
	c-20.613-62.602-31.071-128.098-30.981-194.003c0-47.09-38.172-85.264-85.262-85.264h-198.95c-47.088,0-85.262,38.174-85.262,85.264
	c0.625,549.121,445.617,994.113,994.738,994.74c47.089,0,85.262-38.174,85.262-85.264v-198.38
	C1104.945,368.909,1066.772,330.737,1019.683,330.737z"/>
</svg>
