<?xml version="1.0" encoding="utf-8"?>
<!-- Generator: Adobe Illustrator 16.0.0, SVG Export Plug-In . SVG Version: 6.00 Build 0)  -->
<!DOCTYPE svg PUBLIC "-//W3C//DTD SVG 1.1//EN" "http://www.w3.org/Graphics/SVG/1.1/DTD/svg11.dtd">
<svg version="1.1" id="Capa_1" xmlns="http://www.w3.org/2000/svg" xmlns:xlink="http://www.w3.org/1999/xlink" x="0px" y="0px"
	 width="1080px" height="1080px" viewBox="-120.466 -243.985 1080 1080" enable-background="new -120.466 -243.985 1080 1080"
	 xml:space="preserve">
<path fill="#815C20" d="M730.441,828.355c1.872,2.776,4.554,4.998,7.647,6.303c2.067,0.872,4.31,1.355,6.747,1.357h130.121
	c3.645-0.006,6.899-1.082,9.689-2.954c2.776-1.874,4.998-4.554,6.303-7.647c0.872-2.067,1.355-4.311,1.357-6.748V701.557h49.879
	c3.645-0.006,6.9-1.082,9.689-2.954c2.776-1.874,4.998-4.554,6.303-7.647c0.872-2.067,1.355-4.31,1.357-6.747V554.088
	c-0.006-3.645-1.082-6.9-2.954-9.689c-1.874-2.776-4.556-4.998-7.647-6.303c-2.069-0.872-4.313-1.355-6.748-1.357H827.245V163.726
	c-0.006-3.645-1.082-6.901-2.954-9.689c-1.875-2.777-4.554-4.998-7.647-6.302c-2.067-0.873-4.313-1.355-6.748-1.358H632.065
	v-373.012c-0.007-3.646-1.082-6.902-2.954-9.689c-1.873-2.777-4.554-4.998-7.648-6.303c-2.066-0.873-4.31-1.355-6.747-1.357H224.354
	c-3.646,0.006-6.902,1.081-9.689,2.955c-2.778,1.873-4.999,4.552-6.303,7.646c-0.873,2.068-1.355,4.311-1.358,6.749v373.012H29.173
	c-3.646,0.006-6.902,1.082-9.689,2.955c-2.777,1.873-4.998,4.552-6.303,7.646c-0.872,2.068-1.355,4.311-1.357,6.749v373.012
	h-114.939c-3.645,0.007-6.901,1.082-9.689,2.955c-2.777,1.874-4.998,4.553-6.303,7.647c-0.873,2.066-1.355,4.312-1.357,6.747
	v130.121c0.006,3.645,1.081,6.901,2.955,9.688c1.873,2.776,4.552,4.998,7.646,6.303c2.068,0.873,4.311,1.355,6.749,1.357h49.879
	v117.108c0.006,3.646,1.081,6.902,2.955,9.689c1.873,2.776,4.552,4.998,7.646,6.303c2.068,0.872,4.311,1.355,6.748,1.357H94.233
	c3.646-0.006,6.902-1.082,9.689-2.954c2.777-1.872,4.998-4.554,6.302-7.647c0.873-2.067,1.355-4.311,1.358-6.748V701.557h225.542
	v117.108c0.006,3.646,1.081,6.902,2.955,9.689c1.873,2.776,4.552,4.998,7.646,6.303c2.068,0.872,4.311,1.355,6.749,1.357h130.121
	c3.645-0.006,6.902-1.082,9.688-2.954c2.776-1.872,4.999-4.554,6.303-7.647c0.873-2.067,1.355-4.311,1.358-6.748V701.557h225.542
	v117.108C727.492,822.311,728.569,825.568,730.441,828.355z M857.607,786.135v15.181h-95.422v-99.759h95.422V786.135z
	 M679.778,332.883c2.814-0.002,5.61-0.676,8.189-2.054l-0.006,0.002c5.642-3.019,9.164-8.899,9.164-15.297V181.076h95.421v340.481
	v15.181H436.884V181.076h95.422v134.458c0,6.397,3.521,12.278,9.161,15.297c2.571,1.374,5.371,2.05,8.184,2.052
	c3.378-0.002,6.72-0.976,9.626-2.912l55.438-36.958l55.437,36.956C673.06,331.907,676.402,332.881,679.778,332.883z
	 M647.245,181.076h15.181v102.039l-38.092-25.391c-2.92-1.946-6.256-2.91-9.619-2.913c-3.365,0.003-6.696,0.965-9.623,2.914
	l-38.088,25.392V181.076H647.245z M371.823-209.286h80.241h15.181v102.039l-38.092-25.391c-2.92-1.946-6.256-2.91-9.619-2.913
	c-3.366,0.003-6.698,0.966-9.624,2.915l-38.087,25.392V-209.286z M241.703-194.105v-15.181h95.421v134.458
	c-0.001,6.398,3.523,12.28,9.16,15.296c2.573,1.375,5.374,2.051,8.188,2.053c3.376-0.002,6.717-0.976,9.624-2.912l55.439-36.958
	l55.437,36.957c2.908,1.938,6.25,2.911,9.626,2.913c2.813-0.002,5.605-0.675,8.186-2.052c5.64-3.018,9.162-8.9,9.162-15.297
	v-134.458h95.421v355.663H241.703V-194.105z M176.643,181.076h80.241h15.181v102.039l-37.84-25.222l-0.252-0.168
	c-2.92-1.946-6.256-2.91-9.619-2.913c-3.366,0.003-6.698,0.965-9.624,2.914l-38.087,25.392V181.076z M46.522,196.257v-15.181h95.422
	v134.458c-0.001,6.397,3.523,12.278,9.161,15.297c2.572,1.374,5.372,2.05,8.186,2.052c3.376-0.002,6.718-0.976,9.625-2.912
	l55.439-36.958l55.436,36.956c2.908,1.938,6.251,2.912,9.627,2.914c2.814-0.002,5.609-0.676,8.189-2.054l-0.005,0.002
	c5.64-3.019,9.164-8.899,9.163-15.297V181.076h95.421V536.74H46.522V196.257z M76.884,786.135v15.181h-95.422v-99.759h95.422
	V786.135z M467.245,786.135v15.181h-95.422v-99.759h95.422V786.135z M-85.767,666.859v-95.422H924.835v80.241v15.181H-85.767z"/>
</svg>
