<?xml version="1.0" encoding="utf-8"?>
<!-- Generator: Adobe Illustrator 16.0.0, SVG Export Plug-In . SVG Version: 6.00 Build 0)  -->
<!DOCTYPE svg PUBLIC "-//W3C//DTD SVG 1.1//EN" "http://www.w3.org/Graphics/SVG/1.1/DTD/svg11.dtd">
<svg version="1.1" id="Capa_1" xmlns="http://www.w3.org/2000/svg" xmlns:xlink="http://www.w3.org/1999/xlink" x="0px" y="0px"
	 width="1080px" height="1163.087px" viewBox="-120.523 -284.941 1080 1163.087"
	 enable-background="new -120.523 -284.941 1080 1163.087" xml:space="preserve">
<g>
	<g>
		<g>
			<path fill="#815C20" d="M834.865-284.941c-22.942,0-41.538,18.598-41.538,41.54v151.739
				C579.469-298.708,238.263-293.182,31.217-79.326C-66.357,21.459-120.792,156.32-120.522,296.599
				c0,22.943,18.598,41.539,41.54,41.539s41.536-18.596,41.536-41.539c0.052-252.353,204.663-456.886,457.018-456.834
				c128.162,0.025,250.419,53.875,336.953,148.41L572.512,49.526c-21.794,7.25-33.585,30.794-26.335,52.588
				c7.251,21.793,30.792,33.585,52.586,26.335l249.233-83.077c17.012-5.667,28.468-21.614,28.41-39.544v-249.231
				C876.406-266.344,857.807-284.941,834.865-284.941z"/>
		</g>
	</g>
	<g>
		<g>
			<path fill="#815C20" d="M917.941,255.063c-22.941,0-41.538,18.598-41.538,41.539c-0.049,252.354-204.661,456.885-457.016,456.835
				c-128.162-0.022-250.42-53.876-336.954-148.408l184.014-61.351c21.793-7.251,33.585-30.796,26.334-52.59
				c-7.25-21.794-30.794-33.586-52.585-26.335L-9.037,547.829c-17.012,5.667-28.468,21.614-28.413,39.546v249.229
				c0,22.942,18.598,41.542,41.54,41.542c22.94,0,41.539-18.6,41.539-41.542V684.865
				c213.857,207.042,555.065,201.521,762.107-12.338c97.578-100.782,152.011-235.644,151.74-375.926
				C959.484,273.661,940.884,255.063,917.941,255.063z"/>
		</g>
	</g>
</g>
</svg>
