<?xml version="1.0" encoding="utf-8"?>
<!-- Generator: Adobe Illustrator 16.0.0, SVG Export Plug-In . SVG Version: 6.00 Build 0)  -->
<!DOCTYPE svg PUBLIC "-//W3C//DTD SVG 1.1//EN" "http://www.w3.org/Graphics/SVG/1.1/DTD/svg11.dtd">
<svg version="1.1" id="Capa_1" xmlns="http://www.w3.org/2000/svg" xmlns:xlink="http://www.w3.org/1999/xlink" x="0px" y="0px"
	 width="1080px" height="1080.004px" viewBox="53.616 -380.362 1080 1080.004"
	 enable-background="new 53.616 -380.362 1080 1080.004" xml:space="preserve">
<path fill="#815C20" d="M713.1,195.532c58.159-38.718,96.517-104.797,96.517-179.893c0-119.285-96.713-216-216-216
	c-119.285,0-216,96.714-216,216c0,75.096,38.358,141.175,96.516,179.893c-139.194,41.977-247.59,154.944-282.494,297.091
	c0,0,0,0.018,0.02,0.018c5.688,6.858,11.591,13.554,17.622,20.123c1.458,1.603,2.987,3.133,4.48,4.699
	c4.644,4.931,9.343,9.791,14.167,14.544c1.999,1.962,4.033,3.852,6.066,5.778c4.463,4.246,8.981,8.442,13.589,12.527
	c2.286,2.017,4.608,4.014,6.912,5.994c4.518,3.869,9.091,7.668,13.752,11.376c2.449,1.962,4.915,3.888,7.379,5.813
	c4.716,3.636,9.505,7.165,14.346,10.62c2.503,1.782,4.968,3.6,7.507,5.347c5.111,3.528,10.313,6.912,15.552,10.259
	c2.358,1.495,4.662,3.042,7.038,4.518c6.048,3.727,12.204,7.291,18.414,10.783c1.639,0.918,3.241,1.908,4.897,2.809
	c8.028,4.392,16.182,8.604,24.461,12.581c0.198,0.09,0.415,0.181,0.613,0.271c7.902,3.779,15.93,7.362,24.048,10.746
	c2.52,1.062,5.094,1.999,7.631,3.005c5.868,2.341,11.736,4.646,17.712,6.769c3.167,1.134,6.373,2.161,9.558,3.24
	c5.437,1.836,10.907,3.617,16.416,5.257c3.491,1.044,7.002,2.017,10.531,2.987c5.327,1.476,10.69,2.881,16.108,4.193
	c3.655,0.883,7.326,1.729,11.017,2.539c5.418,1.188,10.854,2.268,16.325,3.275c3.708,0.685,7.398,1.386,11.143,1.979
	c5.651,0.918,11.341,1.692,17.046,2.431c3.601,0.468,7.183,0.99,10.801,1.368c6.3,0.684,12.653,1.169,19.007,1.619
	c3.078,0.216,6.12,0.54,9.197,0.704c9.486,0.538,19.01,0.845,28.621,0.845s19.133-0.307,28.619-0.81
	c3.079-0.162,6.139-0.486,9.199-0.702c6.371-0.45,12.727-0.937,19.007-1.621c3.618-0.396,7.2-0.899,10.801-1.368
	c5.707-0.736,11.395-1.511,17.046-2.429c3.727-0.612,7.435-1.297,11.143-1.98c5.472-1.009,10.925-2.087,16.325-3.276
	c3.69-0.81,7.363-1.654,11.017-2.537c5.4-1.314,10.764-2.718,16.11-4.195c3.51-0.971,7.038-1.943,10.53-2.987
	c5.525-1.656,10.979-3.437,16.415-5.257c3.188-1.079,6.408-2.104,9.559-3.238c5.958-2.143,11.844-4.428,17.712-6.769
	c2.537-1.008,5.111-1.963,7.631-3.007c8.083-3.384,16.075-6.929,23.941-10.71c0.234-0.108,0.486-0.216,0.72-0.324
	c8.279-3.978,16.433-8.189,24.463-12.581c1.654-0.9,3.256-1.891,4.896-2.809c6.21-3.492,12.366-7.055,18.413-10.781
	c2.376-1.458,4.699-3.006,7.038-4.518c5.238-3.349,10.44-6.75,15.552-10.261c2.52-1.746,5.004-3.547,7.507-5.347
	c4.843-3.473,9.63-7.002,14.347-10.62c2.483-1.908,4.931-3.852,7.379-5.813c4.644-3.709,9.234-7.507,13.752-11.377
	c2.323-1.98,4.645-3.978,6.912-5.994c4.608-4.085,9.126-8.279,13.591-12.527c2.015-1.926,4.068-3.834,6.064-5.778
	c4.825-4.751,9.541-9.611,14.167-14.544c1.477-1.584,3.005-3.114,4.483-4.698c6.029-6.57,11.933-13.266,17.621-20.124
	c0,0,0-0.018,0.018-0.018C960.709,350.476,852.314,237.491,713.1,195.532z"/>
<path fill="#815C20" d="M593.616-380.362c-297.755,0-540,242.245-540,540.002c0,130.41,46.475,250.164,123.732,343.585
	c0.199,0.27,0.216,0.611,0.433,0.863c55.782,67.267,125.837,118.837,203.904,152.154c0.9,0.378,1.782,0.792,2.683,1.169
	c6.318,2.665,12.707,5.132,19.115,7.543c2.52,0.955,5.041,1.926,7.596,2.844c5.526,1.98,11.087,3.854,16.687,5.652
	c3.582,1.152,7.165,2.287,10.782,3.365c4.949,1.477,9.917,2.899,14.922,4.249c4.393,1.188,8.82,2.286,13.247,3.349
	c4.483,1.079,8.983,2.16,13.501,3.113c5.039,1.08,10.133,2.033,15.246,2.969c4.104,0.757,8.189,1.549,12.33,2.215
	c5.669,0.918,11.376,1.639,17.099,2.376c3.69,0.468,7.363,1.009,11.072,1.405c6.479,0.684,13.013,1.17,19.565,1.619
	c3.042,0.217,6.064,0.541,9.124,0.702c9.559,0.54,19.226,0.829,28.963,0.829s19.404-0.289,28.998-0.794
	c3.061-0.161,6.084-0.485,9.127-0.702c6.552-0.467,13.086-0.935,19.565-1.619c3.708-0.396,7.379-0.936,11.069-1.402
	c5.725-0.739,11.43-1.459,17.102-2.378c4.121-0.665,8.226-1.457,12.329-2.213c5.094-0.936,10.188-1.891,15.246-2.972
	c4.518-0.971,9.001-2.034,13.501-3.113c4.428-1.08,8.855-2.177,13.247-3.348c5.004-1.333,9.972-2.771,14.922-4.247
	c3.618-1.081,7.2-2.215,10.782-3.366c5.598-1.801,11.159-3.674,16.686-5.652c2.538-0.918,5.058-1.891,7.597-2.844
	c6.427-2.413,12.798-4.896,19.115-7.542c0.9-0.38,1.782-0.792,2.683-1.171c78.048-33.318,148.122-84.889,203.904-152.153
	c0.216-0.253,0.233-0.613,0.432-0.864c77.221-93.457,123.695-213.211,123.695-343.621
	C1133.616-138.117,891.373-380.362,593.616-380.362z M701.328,181.546c-7.093,4.608-14.472,8.729-22.05,12.33
	c-0.899,0.433-1.782,0.883-2.682,1.297c-52.129,23.707-113.832,23.707-165.961,0c-0.899-0.414-1.8-0.864-2.682-1.297
	c-7.596-3.6-14.957-7.721-22.05-12.33c-54.271-35.352-90.289-96.463-90.289-165.907c0-109.17,88.831-198,198-198s198,88.831,198,198
	C791.616,85.083,755.599,146.195,701.328,181.546z M479.209,219.563c1.511,0.845,3.005,1.745,4.535,2.555
	c5.363,2.845,10.801,5.508,16.362,7.902c4.267,1.873,8.677,3.457,13.068,5.076c0.863,0.306,1.728,0.648,2.593,0.955
	c24.407,8.639,50.524,13.589,77.849,13.589s53.441-4.95,77.831-13.589c0.865-0.306,1.729-0.648,2.593-0.955
	c4.392-1.62,8.802-3.204,13.068-5.076c5.562-2.394,10.999-5.057,16.361-7.902c1.531-0.828,3.025-1.71,4.536-2.555
	c2.574-1.44,5.202-2.808,7.724-4.356c126.719,41.111,225.198,144.396,260.01,272.502c-45.019,52.362-100.494,95.49-163.296,125.892
	c-0.271,0.126-0.522,0.271-0.794,0.397c-6.424,3.095-12.958,6.011-19.547,8.854c-1.494,0.631-2.97,1.279-4.464,1.908
	c-5.76,2.413-11.592,4.699-17.46,6.895c-2.449,0.917-4.896,1.817-7.362,2.682c-5.201,1.854-10.421,3.636-15.695,5.328
	c-3.276,1.044-6.569,2.034-9.865,3.007c-4.68,1.403-9.378,2.753-14.13,4.013c-3.995,1.063-8.027,2.034-12.061,2.989
	c-4.229,1.008-8.44,2.034-12.707,2.934c-4.661,0.99-9.359,1.836-14.039,2.683c-3.799,0.702-7.58,1.438-11.414,2.052
	c-5.272,0.827-10.6,1.494-15.912,2.16c-3.364,0.432-6.713,0.936-10.114,1.295c-6.066,0.648-12.187,1.063-18.288,1.493
	c-2.718,0.181-5.418,0.487-8.173,0.631c-8.909,0.468-17.839,0.72-26.802,0.72s-17.891-0.252-26.783-0.72
	c-2.736-0.144-5.437-0.433-8.174-0.631c-6.119-0.413-12.221-0.845-18.286-1.493c-3.403-0.359-6.75-0.863-10.116-1.295
	c-5.311-0.666-10.638-1.333-15.912-2.16c-3.834-0.613-7.613-1.35-11.412-2.052c-4.698-0.847-9.396-1.712-14.039-2.683
	c-4.267-0.899-8.498-1.926-12.709-2.934c-4.032-0.973-8.063-1.926-12.061-2.989c-4.734-1.26-9.45-2.628-14.13-4.013
	c-3.293-0.973-6.587-1.963-9.863-3.007c-5.274-1.692-10.512-3.475-15.695-5.328c-2.467-0.882-4.915-1.782-7.364-2.682
	c-5.868-2.195-11.699-4.481-17.459-6.895c-1.495-0.611-2.952-1.26-4.447-1.891c-6.587-2.825-13.122-5.76-19.565-8.854
	c-0.27-0.126-0.523-0.252-0.792-0.397c-62.802-30.384-118.279-73.512-163.297-125.892
	c34.795-128.124,133.291-231.409,260.012-272.502C474.025,216.755,476.635,218.122,479.209,219.563z M1002.739,453.456
	c-40.805-120.494-133.901-217.873-252.847-264.133c47.575-42.859,77.726-104.743,77.726-173.683c0-129.024-104.977-234-234.001-234
	s-234,104.976-234,234c0,68.94,30.15,130.824,77.743,173.683c-118.945,46.278-212.04,143.639-252.847,264.133
	c-59.634-82.784-94.896-184.231-94.896-293.815c0-277.903,226.097-504.001,504-504.001c277.903,0,504.002,226.099,504.002,504.001
	C1097.618,269.225,1062.355,370.672,1002.739,453.456z"/>
</svg>
