<?xml version="1.0" encoding="utf-8"?>
<!-- Generator: Adobe Illustrator 16.0.0, SVG Export Plug-In . SVG Version: 6.00 Build 0)  -->
<!DOCTYPE svg PUBLIC "-//W3C//DTD SVG 1.1//EN" "http://www.w3.org/Graphics/SVG/1.1/DTD/svg11.dtd">
<svg version="1.1" id="Capa_1" xmlns="http://www.w3.org/2000/svg" xmlns:xlink="http://www.w3.org/1999/xlink" x="0px" y="0px"
	 width="1079.999px" height="1157.143px" viewBox="-118.383 -280.516 1079.999 1157.143"
	 enable-background="new -118.383 -280.516 1079.999 1157.143" xml:space="preserve">
<g>
	<path fill="#815C20" d="M-99.098,876.628H942.331c10.65,0,19.285-8.633,19.285-19.285V-261.231c0-10.65-8.635-19.286-19.285-19.286
		h-77.144c-10.65,0-19.285,8.636-19.285,19.286v250.714h-231.43v-250.714c0-10.65-8.635-19.286-19.286-19.286h-77.143
		c-10.65,0-19.285,8.636-19.285,19.286v250.714H267.331v-212.143c0-10.65-8.636-19.286-19.286-19.286H-2.669v-19.286
		c0-10.65-8.635-19.286-19.286-19.286h-77.143c-10.653,0-19.286,8.636-19.286,19.286V857.343
		C-118.384,867.995-109.751,876.628-99.098,876.628z M884.474-241.945h38.571V838.056h-38.571V-241.945z M691.615,336.627h77.144
		v38.571h-77.144V336.627z M614.473,298.055v-38.571h231.43v38.571H614.473z M653.044,336.627v57.857
		c0,10.652,8.636,19.285,19.286,19.285h115.714c10.65,0,19.287-8.633,19.287-19.285v-57.857h38.571v192.857h-231.43V336.627H653.044
		z M691.615,568.055h77.144v38.571h-77.144V568.055z M653.044,568.055v57.857c0,10.653,8.636,19.286,19.286,19.286h115.714
		c10.65,0,19.287-8.633,19.287-19.286v-57.857h38.571v192.858h-231.43V568.055H653.044z M845.903,799.485v38.571h-231.43v-38.571
		H845.903z M691.615,28.055h77.144v38.571h-77.144V28.055z M653.044,28.055v57.857c0,10.653,8.636,19.286,19.286,19.286h115.714
		c10.65,0,19.287-8.633,19.287-19.286V28.055h38.571v192.857h-231.43V28.055H653.044z M537.33-241.945h38.571V838.056H537.33
		V-241.945z M74.473,28.055h77.143v38.571H74.473V28.055z M55.188,105.198h115.714c10.65,0,19.286-8.633,19.286-19.286V28.055
		h38.572v192.857H-2.669V28.055h38.571v57.857C35.902,96.565,44.535,105.198,55.188,105.198z M498.759,259.484v38.571H-2.669
		v-38.571H498.759z M344.474,568.055h77.142v38.571h-77.142V568.055z M325.188,645.199h115.713c10.65,0,19.285-8.633,19.285-19.286
		v-57.857h38.572v192.858H267.331V568.055h38.571v57.857C305.903,636.566,314.535,645.199,325.188,645.199z M267.331,529.484
		V336.627h38.571v57.857c0,10.652,8.633,19.285,19.286,19.285h115.713c10.65,0,19.285-8.633,19.285-19.285v-57.857h38.572v192.857
		H267.331z M344.474,336.627h77.142v38.571h-77.142V336.627z M74.473,336.627h77.143v38.571H74.473V336.627z M35.902,336.627v57.857
		c0,10.652,8.633,19.285,19.286,19.285h115.714c10.65,0,19.286-8.633,19.286-19.285v-57.857h38.572v192.857H-2.669V336.627H35.902z
		 M74.473,568.055h77.143v38.571H74.473V568.055z M35.902,568.055v57.857c0,10.653,8.633,19.286,19.286,19.286h115.714
		c10.65,0,19.286-8.633,19.286-19.286v-57.857h38.572v192.858H-2.669V568.055H35.902z M498.759,799.485v38.571H-2.669v-38.571
		H498.759z M344.474,28.055h77.142v38.571h-77.142V28.055z M305.903,28.055v57.857c0,10.653,8.633,19.286,19.286,19.286h115.713
		c10.65,0,19.285-8.633,19.285-19.286V28.055h38.572v192.857H267.331V28.055H305.903z M74.473-203.374h77.143v38.571H74.473
		V-203.374z M35.902-203.374v57.857c0,10.653,8.633,19.286,19.286,19.286h115.714c10.65,0,19.286-8.633,19.286-19.286v-57.857
		h38.572v192.857H-2.669v-192.857H35.902z M-79.812-241.945h38.572V838.056h-38.572V-241.945z"/>
</g>
</svg>
