<?xml version="1.0" encoding="utf-8"?>
<!-- Generator: Adobe Illustrator 16.0.0, SVG Export Plug-In . SVG Version: 6.00 Build 0)  -->
<!DOCTYPE svg PUBLIC "-//W3C//DTD SVG 1.1//EN" "http://www.w3.org/Graphics/SVG/1.1/DTD/svg11.dtd">
<svg version="1.1" id="Capa_1" xmlns="http://www.w3.org/2000/svg" xmlns:xlink="http://www.w3.org/1999/xlink" x="0px" y="0px"
	 width="1080px" height="683.17px" viewBox="53.617 -181.945 1080 683.17" enable-background="new 53.617 -181.945 1080 683.17"
	 xml:space="preserve">
<g>
	<g>
		<g>
			<path fill="#815C20" d="M1058.013,107.673L1030.047-4.196c7.646-1.626,13.384-8.409,13.384-16.537V-38.77
				c0-39.163-31.863-71.022-71.022-71.022H845.016v-37.207c0-19.27-15.677-34.945-34.946-34.945H160.714
				c-19.271,0-34.948,15.676-34.948,34.945v306.642c0,9.337,7.571,16.913,16.91,16.913s16.912-7.572,16.912-16.913v-306.642
				c0-0.62,0.505-1.127,1.127-1.127h649.352c0.624,0,1.127,0.507,1.127,1.127v306.645c0,9.341,7.573,16.914,16.91,16.914
				c9.341,0,16.913-7.573,16.913-16.914v-19.17h199.481c0.018,0,0.028,0.007,0.043,0.007c0.018,0,0.031-0.003,0.046-0.003
				c24.55,0.018,45.393,16.13,52.55,38.33h-52.582c-9.337,0-16.909,7.568-16.909,16.909v36.076
				c0,29.217,23.767,52.986,52.982,52.986h19.167v74.403h-44.216c-14.525-41.941-54.396-72.153-101.214-72.153
				c-46.816,0-86.688,30.212-101.213,72.153h-8.14V231.792c0-9.338-7.572-16.91-16.913-16.91c-9.337,0-16.909,7.569-16.909,16.91
				V359.18H460.341c-14.525-41.94-54.395-72.152-101.212-72.152c-46.819,0-86.69,30.212-101.213,72.152h-97.202
				c-0.622,0-1.127-0.507-1.127-1.127V320.85h73.278c9.339,0,16.912-7.572,16.912-16.909c0-9.341-7.571-16.913-16.912-16.913H70.526
				c-9.337,0-16.909,7.572-16.909,16.913c0,9.337,7.57,16.909,16.909,16.909h55.242v37.203c0,19.27,15.677,34.946,34.948,34.946
				h91.345c-0.003,0.376-0.03,0.751-0.03,1.127c0,59.056,48.046,107.099,107.099,107.099c59.051,0,107.097-48.043,107.097-107.099
				c0-0.379-0.026-0.751-0.029-1.127h381.102c-0.004,0.376-0.028,0.751-0.028,1.127c0,59.056,48.043,107.099,107.095,107.099
				c59.053,0,107.1-48.043,107.1-107.099c0-0.379-0.025-0.751-0.032-1.127h55.275c9.337,0,16.909-7.569,16.909-16.909V195.715
				C1133.616,151.18,1100.761,114.182,1058.013,107.673z M845.016-75.973h127.393c20.514,0,37.203,16.69,37.203,37.203v1.127
				H845.016V-75.973z M845.016,106.656V-3.823h150.263l27.621,110.479H845.016z M359.129,467.41
				c-40.407,0-73.278-32.87-73.278-73.276c0-40.41,32.871-73.279,73.278-73.279c40.405,0,73.276,32.869,73.276,73.279
				C432.406,434.54,399.534,467.41,359.129,467.41z M954.368,467.41c-40.403,0-73.276-32.87-73.276-73.276
				c0-40.41,32.873-73.279,73.276-73.279c40.406,0,73.279,32.869,73.279,73.279C1027.648,434.54,994.775,467.41,954.368,467.41z
				 M1099.797,250.958h-19.163c-10.57,0-19.167-8.596-19.167-19.166v-19.167h38.33V250.958L1099.797,250.958z"/>
		</g>
	</g>
	<g>
		<g>
			<path fill="#815C20" d="M359.129,359.184c-19.271,0-34.95,15.676-34.95,34.949c0,19.27,15.678,34.946,34.95,34.946
				s34.948-15.677,34.948-34.946C394.077,374.86,378.401,359.184,359.129,359.184z"/>
		</g>
	</g>
	<g>
		<g>
			<path fill="#815C20" d="M954.368,359.184c-19.27,0-34.946,15.676-34.946,34.949c0,19.27,15.677,34.946,34.946,34.946
				c19.273,0,34.949-15.677,34.949-34.946C989.318,374.86,973.642,359.184,954.368,359.184z"/>
		</g>
	</g>
	<g>
		<g>
			<path fill="#815C20" d="M755.953,287.035H503.429c-9.338,0-16.91,7.568-16.91,16.909s7.57,16.913,16.91,16.913h252.524
				c9.341,0,16.913-7.572,16.913-16.913S765.294,287.035,755.953,287.035z"/>
		</g>
	</g>
	<g>
		<g>
			<path fill="#815C20" d="M323.054,214.882H106.601c-9.337,0-16.909,7.572-16.909,16.913s7.57,16.91,16.909,16.91h216.454
				c9.337,0,16.91-7.569,16.91-16.91S332.391,214.882,323.054,214.882z"/>
		</g>
	</g>
	<g>
		<g>
			<path fill="#815C20" d="M641.65-14.656c-6.602-6.602-17.313-6.602-23.914,0.003l-150.381,150.38l-78.231-78.23
				c-6.604-6.605-17.312-6.605-23.914,0c-6.605,6.605-6.605,17.311,0,23.912l90.19,90.189c3.301,3.302,7.629,4.953,11.955,4.953
				c4.325,0,8.656-1.651,11.956-4.953L641.647,9.26C648.251,2.654,648.251-8.051,641.65-14.656z"/>
		</g>
	</g>
</g>
</svg>
