<?xml version="1.0" encoding="utf-8"?>
<!-- Generator: Adobe Illustrator 16.0.0, SVG Export Plug-In . SVG Version: 6.00 Build 0)  -->
<!DOCTYPE svg PUBLIC "-//W3C//DTD SVG 1.1//EN" "http://www.w3.org/Graphics/SVG/1.1/DTD/svg11.dtd">
<svg version="1.1" id="Capa_1" xmlns="http://www.w3.org/2000/svg" xmlns:xlink="http://www.w3.org/1999/xlink" x="0px" y="0px"
	 width="1079.999px" height="1097.996px" viewBox="-118.383 -250.942 1079.999 1097.996"
	 enable-background="new -118.383 -250.942 1079.999 1097.996" xml:space="preserve">
<g id="Outline">
	<rect x="133.618" y="739.053" fill="#815C20" width="36" height="36"/>
	<path fill="#815C20" d="M547.615,523.054H241.617V253.056c0-9.94-8.059-18-18-18h-323.999c-9.943,0-18,8.06-18,18v575.998
		c0,9.942,8.057,18,18,18h647.996c9.94,0,18-8.058,18-18V541.054C565.615,531.114,557.556,523.054,547.615,523.054z
		 M349.617,559.054h71.998v72h-71.998V559.054z M25.619,271.056h72v72h-72V271.056z M-82.381,271.056h72v90c0,9.942,8.057,18,18,18
		h108c9.94,0,18-8.058,18-18v-90h72v251.999H-82.381V271.056z M25.619,559.054h72v72h-72V559.054z M-82.381,559.054h72v90
		c0,9.942,8.057,18,18,18h108c9.94,0,18-8.058,18-18v-90h72v251.999H-82.381V559.054z M529.615,811.053H241.617V559.054h72v90
		c0,9.942,8.057,18,18,18h107.998c9.94,0,18-8.058,18-18v-90h72V811.053z"/>
	<rect x="457.615" y="739.053" fill="#815C20" width="36" height="36"/>
	<rect x="133.618" y="451.055" fill="#815C20" width="36" height="35.999"/>
	<path fill="#815C20" d="M939.39-17.446c1.385,0.336,2.8,0.505,4.224,0.503c6.42-0.005,12.353-3.417,15.583-8.963
		c1.635-2.878,2.47-6.141,2.417-9.45v-71.587c0-8.312-5.695-15.545-13.777-17.494l-521.997-126c-2.773-0.675-5.67-0.675-8.445,0
		l-521.998,126c-8.082,1.949-13.777,9.182-13.777,17.494v71.49c-0.062,3.768,1.015,7.468,3.091,10.615
		c4.217,6.203,11.833,9.145,19.125,7.392l31.784-7.67v224.173h36V-33.807l449.997-108.619L871.614-33.807v844.86H763.615V109.056
		c0-9.94-8.06-18-18-18H97.618c-9.942,0-18,8.06-18,18v72c0,9.942,8.058,18,18,18h629.996v36H277.617v36h449.997v36H277.617v36
		h449.997v36H277.617v36h449.997v395.998h-126v36h359.999v-36h-54v-836.17L939.39-17.446z M115.618,163.056v-36h611.996v36H115.618z
		 M421.615-178.942c-1.422,0-2.84,0.169-4.222,0.505L-82.381-57.805v-34.962l503.996-121.656L925.614-92.768v34.965L425.839-178.437
		C424.459-178.773,423.039-178.942,421.615-178.942z"/>
	<path fill="#815C20" d="M457.615,37.057c29.825,0,54-24.176,54-54c0-29.824-24.175-54-54-54h-71.999c-29.823,0-54,24.176-54,54
		c0,29.823,24.176,54,54,54H457.615z M367.617-16.943c0.011-9.936,8.063-17.989,18-18h71.999c9.94,0,18,8.06,18,18
		c0,9.942-8.06,18-18,18h-71.999C375.681,1.046,367.628-7.007,367.617-16.943z"/>
</g>
</svg>
