<?xml version="1.0" encoding="utf-8"?>
<!-- Generator: Adobe Illustrator 16.0.0, SVG Export Plug-In . SVG Version: 6.00 Build 0)  -->
<!DOCTYPE svg PUBLIC "-//W3C//DTD SVG 1.1//EN" "http://www.w3.org/Graphics/SVG/1.1/DTD/svg11.dtd">
<svg version="1.1" id="Capa_1" xmlns="http://www.w3.org/2000/svg" xmlns:xlink="http://www.w3.org/1999/xlink" x="0px" y="0px"
	 width="1079.999px" height="894.142px" viewBox="-118.384 -149.015 1079.999 894.142"
	 enable-background="new -118.384 -149.015 1079.999 894.142" xml:space="preserve">
<g>
	<g>
		<path fill="#815C20" d="M655.387-148.994L655.387-148.994c-90.094-0.482-175.74,39.085-233.773,107.999
			c-57.669-69.385-143.555-109.063-233.771-107.999c-169.124,0-306.226,137.102-306.226,306.226
			c0,289.825,505.821,572.81,526.328,583.747c8.274,5.53,19.065,5.53,27.341,0c20.509-10.937,526.33-289.822,526.33-583.747
			C961.615-11.892,824.511-148.994,655.387-148.994z M421.614,686.296c-79.289-46.48-485.314-293.923-485.314-529.064
			c0-138.923,112.62-251.546,251.545-251.546C272.917-95.43,352.533-52.52,398.375,19.154c9.307,12.834,27.26,15.694,40.095,6.385
			c2.452-1.78,4.608-3.933,6.385-6.385c76.028-116.273,231.921-148.898,348.193-72.87c71.179,46.544,114.022,125.9,113.881,210.944
			C906.931,395.105,500.905,641.181,421.614,686.296z"/>
	</g>
</g>
</svg>
